<?xml version="1.0" standalone="no"?>
<!DOCTYPE svg PUBLIC "-//W3C//DTD SVG 20010904//EN"
 "http://www.w3.org/TR/2001/REC-SVG-20010904/DTD/svg10.dtd">
<svg version="1.0" xmlns="http://www.w3.org/2000/svg"
 width="50.000000pt" height="50.000000pt" viewBox="0 0 50.000000 50.000000"
 preserveAspectRatio="xMidYMid meet">
<metadata>
Created by potrace 1.15, written by Peter Selinger 2001-2017
</metadata>
<g transform="translate(0.000000,50.000000) scale(0.100000,-0.100000)"
fill="#000000" stroke="none">
<path d="M240 481 c0 -5 -9 -7 -20 -4 -11 3 -20 0 -20 -6 0 -6 -8 -11 -18 -11
-10 0 -25 -15 -37 -37 -10 -21 -32 -52 -49 -70 -21 -23 -26 -36 -19 -45 10
-13 9 -55 -2 -93 -4 -15 5 -33 34 -65 22 -25 44 -49 49 -55 4 -5 2 -27 -5 -48
-8 -22 -11 -42 -9 -45 5 -4 11 9 32 67 4 12 7 12 17 -1 21 -26 46 -29 64 -8
13 15 20 17 30 8 10 -8 17 -8 25 0 19 19 27 14 34 -23 3 -19 11 -38 17 -42 10
-6 6 33 -8 68 -4 11 0 18 14 22 12 3 24 13 28 24 4 10 16 25 26 34 28 22 32
140 6 168 -10 10 -15 21 -13 24 3 3 -6 13 -20 22 -14 10 -24 20 -22 24 6 9
-60 81 -73 81 -6 0 -11 5 -11 10 0 6 -11 10 -25 10 -14 0 -25 -4 -25 -9z m44
-16 c3 -8 13 -15 22 -15 8 0 14 -6 12 -12 -3 -7 4 -17 15 -23 31 -15 33 -35 4
-35 -14 0 -38 -7 -53 -15 -19 -10 -23 -15 -12 -15 24 0 38 -31 38 -81 0 -72
-55 -104 -100 -59 -28 28 -28 102 0 130 16 16 17 20 5 20 -8 0 -15 6 -15 13 0
9 -10 12 -31 9 -17 -3 -30 -1 -27 4 25 55 32 64 50 58 10 -3 18 -2 18 3 0 9
37 30 56 32 7 0 14 -6 18 -14z m-95 -104 c10 -6 11 -13 2 -29 -18 -34 -13 -96
10 -126 25 -32 70 -35 99 -6 23 23 28 97 9 132 -9 16 -8 23 2 29 19 12 57 11
64 -2 11 -17 -3 -23 -20 -9 -9 7 -18 11 -20 8 -3 -3 7 -11 21 -18 22 -12 27
-12 34 0 8 13 10 12 10 -2 0 -9 8 -21 18 -27 13 -8 14 -12 5 -22 -10 -10 -9
-15 4 -24 11 -8 14 -18 8 -31 -4 -10 -7 -29 -6 -42 2 -16 -4 -25 -18 -29 -12
-3 -21 -13 -21 -23 0 -28 -25 -43 -49 -31 -26 15 -29 14 -27 -7 1 -12 -6 -17
-24 -16 -13 1 -30 -5 -38 -12 -21 -21 -41 -17 -54 11 -6 14 -20 25 -31 25 -15
0 -18 5 -15 25 5 21 1 25 -19 25 -18 0 -24 4 -19 15 4 10 -1 15 -14 15 -26 0
-26 26 1 40 20 11 20 12 2 26 -15 11 -16 15 -4 23 12 8 12 12 2 25 -15 18 -6
37 14 30 8 -3 24 1 37 10 12 9 17 16 11 16 -7 0 -15 -4 -18 -10 -9 -15 -25
-12 -25 5 0 17 46 21 69 6z"/>
</g>
</svg>
