<?xml version="1.0" standalone="no"?>
<!DOCTYPE svg PUBLIC "-//W3C//DTD SVG 20010904//EN"
 "http://www.w3.org/TR/2001/REC-SVG-20010904/DTD/svg10.dtd">
<svg version="1.0" xmlns="http://www.w3.org/2000/svg"
 width="50.000000pt" height="50.000000pt" viewBox="0 0 50.000000 50.000000"
 preserveAspectRatio="xMidYMid meet">

<g transform="translate(0.000000,50.000000) scale(0.100000,-0.100000)"
fill="#000000" stroke="none">
<path d="M70 460 c0 -28 3 -30 36 -30 24 0 34 -4 31 -12 -2 -8 -16 -12 -35
-10 -25 3 -32 0 -32 -13 0 -12 6 -16 20 -12 25 6 26 -8 1 -34 -20 -22 -26 -99
-8 -99 7 0 7 -4 -1 -12 -17 -17 -15 -54 3 -72 8 -8 15 -19 15 -25 0 -6 -7 -11
-15 -11 -31 0 -14 -19 20 -22 20 -2 35 -7 34 -12 0 -5 5 -12 11 -16 7 -4 -8
-5 -34 -3 l-46 6 0 -42 0 -41 99 0 100 0 4 37 4 38 1 -37 2 -38 85 0 85 0 0
35 c0 32 -2 35 -30 35 -23 0 -30 4 -30 20 0 16 7 20 30 20 30 0 41 15 18 23
-10 3 -10 9 -1 28 14 27 13 136 -1 158 -6 10 -6 16 2 19 19 6 14 22 -8 22 -27
0 -25 28 3 33 12 2 3 5 -20 6 -24 0 -43 5 -43 10 0 5 -11 19 -25 32 -13 13
-25 29 -25 35 0 8 -39 12 -125 13 l-125 2 0 -31z m231 -12 c5 1 9 -5 9 -13 0
-8 5 -15 11 -15 11 0 39 -24 39 -34 0 -13 -51 -5 -56 8 -7 19 -104 18 -111 -1
-6 -15 -53 -18 -53 -3 0 6 7 13 15 16 8 4 15 13 15 21 0 10 7 14 20 10 13 -3
20 0 20 10 0 9 6 13 14 10 8 -3 20 1 27 9 12 14 14 14 27 -3 7 -10 18 -17 23
-15z m-71 -68 c0 -11 -4 -20 -9 -20 -14 0 -23 18 -16 30 10 17 25 11 25 -10z
m58 3 c-5 -24 -25 -27 -31 -3 -4 15 0 20 15 20 13 0 18 -6 16 -17z m-144 -27
c-21 -15 -30 -14 -19 3 3 6 14 11 23 11 13 0 13 -2 -4 -14z m231 3 c11 -17 2
-18 -25 -4 -24 14 -24 14 -3 15 12 0 25 -5 28 -11z m-74 -36 c24 -63 -2 -133
-50 -133 -26 0 -61 46 -61 81 0 37 19 77 39 81 33 7 63 -5 72 -29z m86 12 c8
2 11 1 8 -5 -3 -5 4 -14 15 -20 18 -10 19 -14 9 -27 -11 -12 -10 -17 5 -25 13
-7 14 -13 6 -23 -6 -7 -8 -25 -4 -40 5 -21 2 -27 -13 -31 -10 -3 -24 -19 -30
-35 -12 -30 -12 -30 -42 -14 -30 15 -31 15 -28 -7 2 -19 -2 -23 -22 -20 -13 1
-32 -5 -41 -13 -23 -21 -50 -9 -50 21 0 21 -3 24 -26 18 -25 -6 -26 -5 -20 20
5 22 3 26 -14 26 -11 0 -20 6 -20 14 0 7 -10 17 -22 20 l-23 6 25 21 c23 20
23 21 6 31 -19 11 -19 11 -1 24 18 14 18 14 -1 28 -21 16 -15 28 19 32 12 1
35 6 51 10 26 6 27 5 17 -14 -34 -63 3 -152 63 -152 61 0 92 72 63 143 l-16
37 37 -15 c20 -9 42 -13 49 -10z"/>
<path d="M225 229 c11 -13 21 -26 22 -28 1 -2 11 7 22 20 21 27 20 39 -3 20
-12 -10 -20 -10 -38 0 l-23 12 20 -24z"/>
</g>
</svg>
